
<svg width="273px" height="179px" viewBox="0 0 273 179" version="1.1" xmlns="http://www.w3.org/2000/svg" xmlns:xlink="http://www.w3.org/1999/xlink">
    <!-- Generator: Sketch 50.2 (55047) - http://www.bohemiancoding.com/sketch -->
    <desc>Created with Sketch.</desc>
    <defs></defs>
    <g id="Page-1" stroke="none" stroke-width="1" fill="none" fill-rule="evenodd">
        <g id="Group-14" transform="translate(1.000000, 1.000000)">
            <path d="M261.1,177.2 L247.6,177.2 C242.3,177.2 238,172.9 238,167.6 L238,131.6 C238,126.3 242.3,122 247.6,122 L261.1,122 C266.4,122 270.7,126.3 270.7,131.6 L270.7,167.6 C270.7,172.9 266.4,177.2 261.1,177.2" id="Shape" stroke="#FFFFFF" stroke-width="1.023"></path>
            <path d="M258,133.5 C258,135.5 256.4,137 254.5,137 C252.5,137 251,135.4 251,133.5 C251,131.5 252.6,130 254.5,130 C256.4,130 258,131.6 258,133.5" id="Shape" stroke="#FFFFFF" stroke-width="1.023"></path>
            <path d="M94,45 L147.6,45" id="Shape" stroke="#FFFFFF" stroke-width="1.023"></path>
            <path d="M94,54 L147.6,54" id="Shape" stroke="#FFFFFF" stroke-width="1.023"></path>
            <path d="M94,63 L147.6,63" id="Shape" stroke="#FFFFFF" stroke-width="1.023"></path>
            <polygon id="Shape" stroke="#FFFFFF" stroke-width="1.023" stroke-linecap="round" stroke-linejoin="round" points="161.7 170 106.2 170 106 150 161.9 150"></polygon>
            <path d="M233.8,145.3 C233.8,146.4 233.4,147.6 232.5,148.4 C231.6,149.3 230.5,149.7 229.4,149.7 L38.4,149.7 C37.3,149.7 36.1,149.3 35.3,148.4 C34.4,147.5 34,146.4 34,145.3 L34,132 L233.9,132 L233.9,145.3 L233.8,145.3 Z" id="Shape" stroke="#FFFFFF" stroke-width="1.023" stroke-linecap="round" stroke-linejoin="round"></path>
            <path d="M233.9,33 L233.9,4.4 C233.8,3.3 233.4,2.1 232.5,1.3 C231.6,0.4 230.5,0 229.4,0 L38.4,0 C37.3,0 36.1,0.4 35.3,1.3 C34.4,2.2 34,3.3 34,4.4 L34,132.4 L233.9,132.4 L233.9,95" id="Shape" stroke="#FFFFFF" stroke-width="1.023" stroke-linecap="round" stroke-linejoin="round"></path>
            <path d="M223.9,95.3183594 L223.9,122.5 L44,122.5 L44,10 L223.9,10 C223.9,19.7650233 223.9,26.4206223 223.9,29.9667969 C223.9,31.9889323 223.9,33 223.9,33" id="Rectangle-path" stroke="#FFFFFF" stroke-width="1.023" stroke-linecap="round" stroke-linejoin="round"></path>
            <rect id="Rectangle-path" stroke="#FFFFFF" stroke-width="1.023" stroke-linecap="round" stroke-linejoin="round" x="50" y="15" width="163" height="10"></rect>
            <rect id="Rectangle-path" stroke="#FFFFFF" stroke-width="1.023" stroke-linecap="round" stroke-linejoin="round" x="173" y="107" width="8.2" height="8.2"></rect>
            <rect id="Rectangle-path" stroke="#FFFFFF" stroke-width="1.023" stroke-linecap="round" stroke-linejoin="round" x="160" y="107" width="8.2" height="8.2"></rect>
            <rect id="Rectangle-path" stroke="#FFFFFF" stroke-width="1.023" stroke-linecap="round" stroke-linejoin="round" x="148" y="107" width="8.2" height="8.2"></rect>
            <rect id="Rectangle-path" stroke="#FFFFFF" stroke-width="1.023" stroke-linecap="round" stroke-linejoin="round" x="135" y="107" width="8.2" height="8.2"></rect>
            <rect id="Rectangle-path" stroke="#FFFFFF" stroke-width="1.023" stroke-linecap="round" stroke-linejoin="round" x="123" y="107" width="8.2" height="8.2"></rect>
            <rect id="Rectangle-path" stroke="#FFFFFF" stroke-width="1.023" stroke-linecap="round" stroke-linejoin="round" x="110" y="107" width="8.2" height="8.2"></rect>
            <rect id="Rectangle-path" stroke="#FFFFFF" stroke-width="1.023" stroke-linecap="round" stroke-linejoin="round" x="98" y="107" width="8.2" height="8.2"></rect>
            <rect id="Rectangle-path" stroke="#FFFFFF" stroke-width="1.023" stroke-linecap="round" stroke-linejoin="round" x="85" y="107" width="8.2" height="8.2"></rect>
            <path d="M109,86 C109,87.8666667 109,90.6666667 109,94.4 C109,96.3 110.6,97.9 112.5,97.9 L149.7,97.9 L167.9,108.8 L167.9,97.9 L176.8,97.9 C178.7,97.9 180.3,96.3 180.3,94.4 L180.3,52.5 C180.3,50.6 178.7,49 176.8,49 C165.777778,49 158.511111,49 155,49" id="Shape" stroke="#FFFFFF" stroke-width="1.023"></path>
            <path d="M154.8,36.6 L154.8,79.5 C154.8,81.5 153.2,83.1 151.2,83.1 L113.1,83.1 L94.5,94.2 L94.5,83.1 L88.6,83.1 C86.6,83.1 85,81.5 85,79.5 L85,36.6 C85,34.6 86.6,33 88.6,33 L151.1,33 C153.2,33 154.8,34.6 154.8,36.6 Z" id="Shape" stroke="#FFFFFF" stroke-width="1.023" stroke-linecap="round" stroke-linejoin="round"></path>
            <rect id="Rectangle-path" stroke="#FFFFFF" stroke-width="1.023" stroke-linecap="round" stroke-linejoin="round" x="92" y="64" width="55.2" height="4.1"></rect>
            <rect id="Rectangle-path" stroke="#FFFFFF" stroke-width="1.023" stroke-linecap="round" stroke-linejoin="round" x="92" y="56" width="55.2" height="4.1"></rect>
            <rect id="Rectangle-path" stroke="#FFFFFF" stroke-width="1.023" stroke-linejoin="round" x="92" y="48" width="55.2" height="4.1"></rect>
            <rect id="Rectangle-path" stroke="#FFFFFF" stroke-width="1.023" stroke-linejoin="round" x="92" y="40" width="55.2" height="4.1"></rect>
            <circle id="Oval" stroke="#FFFFFF" stroke-width="1.023" stroke-linejoin="round" cx="70.3" cy="20.3" r="2.3"></circle>
            <circle id="Oval" stroke="#FFFFFF" stroke-width="1.023" stroke-linecap="round" stroke-linejoin="round" cx="63.3" cy="20.3" r="2.3"></circle>
            <circle id="Oval" stroke="#FFFFFF" stroke-width="1.023" stroke-linejoin="round" cx="55.3" cy="20.3" r="2.3"></circle>
            <path d="M88,20 L176.9,20" id="Shape" stroke="#FFFFFF" stroke-width="1.023" stroke-linejoin="round"></path>
            <polygon id="Shape" stroke="#FFFFFF" stroke-width="1.023" stroke-linecap="round" stroke-linejoin="round" points="206.7 104.6 193.3 96 193 111.9 197.2 107.1 200.2 112.6 203.3 110.9 200.4 105.4"></polygon>
            <rect id="Rectangle-path" stroke="#FFFFFF" stroke-width="1.023" stroke-linecap="round" stroke-linejoin="round" x="85" y="170" width="96.7" height="7.2"></rect>
            <polygon id="Shape" stroke="#FFFFFF" stroke-width="1.023" stroke-linecap="round" stroke-linejoin="round" points="207 33 207 94.9 249.2 94.9 269 106.6 269 33"></polygon>
            <text id="&lt;" stroke="#FFFFFF" stroke-width="1.023" fill="#000000" stroke-linecap="round" stroke-linejoin="round" font-family="Helvetica" font-size="36.4455" font-weight="normal">
                <tspan x="212" y="75">&lt;</tspan>
            </text>
            <text id="i" stroke="#FFFFFF" stroke-width="1.023" fill="#000000" font-family="Helvetica" font-size="36.4455" font-weight="normal">
                <tspan x="234" y="75">i</tspan>
            </text>
            <text id="&gt;" stroke="#FFFFFF" stroke-width="1.023" fill="#000000" stroke-linecap="round" stroke-linejoin="round" font-family="Helvetica" font-size="36.4455" font-weight="normal">
                <tspan x="242" y="75">&gt;</tspan>
            </text>
            <path d="M251.680879,25.9808793 C249.280879,25.5808793 246.980879,24.4808793 245.080879,22.5808793 C239.880879,17.5808793 239.580879,9.38087934 244.580879,4.08087934 C249.580879,-1.11912066 257.780879,-1.41912066 263.080879,3.58087934 C268.280879,8.58087934 268.580879,16.7808793 263.580879,22.0808793 C261.780879,23.9808793 259.480879,25.2808793 257.180879,25.7808793 L254.680879,31.5808793 L251.680879,25.9808793 Z" id="Shape" stroke="#FFFFFF" stroke-linecap="round" stroke-linejoin="round"></path>
            <path d="M261.3,9 L248,9" id="Shape" stroke="#FFFFFF" stroke-linecap="round" stroke-linejoin="round"></path>
            <path d="M261.3,9 L248,9" id="Shape" stroke="#FFFFFF" stroke-linecap="round" stroke-linejoin="round"></path>
            <path d="M261.3,13 L248,13" id="Shape" stroke="#FFFFFF" stroke-linecap="round" stroke-linejoin="round"></path>
            <path d="M261.3,13 L248,13" id="Shape" stroke="#FFFFFF" stroke-linecap="round" stroke-linejoin="round"></path>
            <path d="M261.4,17 L253,17" id="Shape" stroke="#FFFFFF" stroke-linecap="round" stroke-linejoin="round"></path>
            <path d="M261.3,17 L248,17" id="Shape" stroke="#FFFFFF" stroke-linecap="round" stroke-linejoin="round"></path>
            <path d="M240,114 L271.3,114" id="Shape" stroke="#FFFFFF" stroke-dasharray="4"></path>
            <circle id="XMLID_5_" cx="226.7" cy="173.7" r="2.7"></circle>
            <path d="M33.3,6 L26.6,6 L26.6,11 C24.4,11.3 22.3,11.9 20.3,12.7 L17.9,8.4 L12.1,11.7 L14.6,16 C12.9,17.3 11.3,18.9 10,20.6 L5.7,18.1 L2.4,23.9 L6.7,26.4 C5.9,28.4 5.3,30.5 5,32.7 L0,32.7 L0,39.3 L5,39.3 C5.3,41.5 5.9,43.6 6.7,45.6 L2.4,48.1 L5.7,53.9 L10,51.4 C11.3,53.1 12.9,54.7 14.6,56 L12.1,60.3 L17.9,63.6 L20.4,59.3 C22.4,60.1 24.5,60.7 26.7,61 L26.7,66 L33.3,66" id="Shape" stroke="#FFFFFF" stroke-linecap="round" stroke-linejoin="round"></path>
            <path d="M33,19 C23.6111593,19 16,26.6111593 16,36 C16,45.3888407 23.6111593,53 33,53" id="Oval-2" stroke="#FFFFFF"></path>
            <path d="M33,27 C27.4771525,27 23,31.2532949 23,36.5 C23,41.7467051 27.4771525,46 33,46" id="Oval-2" stroke="#FFFFFF"></path>
        </g>
    </g>
</svg>