
<svg width="30px" height="45px" viewBox="0 0 30 45" version="1.1" xmlns="http://www.w3.org/2000/svg" xmlns:xlink="http://www.w3.org/1999/xlink">
    <!-- Generator: Sketch 50.2 (55047) - http://www.bohemiancoding.com/sketch -->
    <desc>Created with Sketch.</desc>
    <defs></defs>
    <g id="Page-1" stroke="none" stroke-width="1" fill="none" fill-rule="evenodd">
        <g id="Group-15" fill="#FFFFFF" fill-rule="nonzero">
            <path d="M20.3448276,8.96525097 C19.2068966,8.96525097 18.2931034,9.88610039 18.2931034,11.0328185 C18.2931034,12.1795367 19.2068966,13.1003861 20.3448276,13.1003861 C21.4655172,13.1003861 22.3965517,12.1795367 22.3965517,11.0328185 C22.3793103,9.88610039 21.4655172,8.96525097 20.3448276,8.96525097 Z M20.3448276,12.0405405 C19.7931034,12.0405405 19.3275862,11.5888031 19.3275862,11.015444 C19.3275862,10.4594595 19.7758621,9.99034749 20.3448276,9.99034749 C20.8965517,9.99034749 21.362069,10.4420849 21.362069,11.015444 C21.3448276,11.5888031 20.8965517,12.0405405 20.3448276,12.0405405 Z M1.44827586,17.7393822 C1.96551724,20.6930502 2.63793103,23.472973 3.46551724,25.6621622 C4.36206897,28.042471 5.43103448,30.1621622 6.74137931,32.1428571 C8.13793103,29.5540541 11.1896552,23.2644788 11.4655172,17.7393822 L1.44827586,17.7393822 Z M17.1206897,19.2857143 L14.9827586,22.4826255 L12.862069,19.2857143 C12.1206897,25.3320463 8.82758621,31.6042471 7.72413793,33.5501931 C8.62068966,34.7490347 9.62068966,35.9131274 10.7413793,37.0598456 C11.1551724,37.4942085 11.6034483,37.9111969 12.0517241,38.3455598 C12.9482759,39.1969112 13.9310345,40.0482625 14.9827586,40.9169884 C16.0344828,40.0656371 17.0172414,39.2142857 17.9137931,38.3455598 C18.362069,37.9111969 18.8103448,37.4942085 19.2241379,37.0598456 C20.3448276,35.9131274 21.3448276,34.7490347 22.2413793,33.5501931 C21.137931,31.5694981 17.8448276,25.3146718 17.1206897,19.2857143 Z M18.5172414,17.7393822 C18.7931034,23.2644788 21.8448276,29.5540541 23.2241379,32.1428571 C24.5517241,30.1447876 25.6206897,28.0250965 26.5172414,25.6621622 C27.3448276,23.472973 28.0172414,20.6930502 28.5344828,17.7393822 L18.5172414,17.7393822 Z M13.6724138,17.7393822 L14.9827586,19.7200772 L16.2931034,17.7393822 L13.6724138,17.7393822 Z M20.3448276,8.96525097 C19.2068966,8.96525097 18.2931034,9.88610039 18.2931034,11.0328185 C18.2931034,12.1795367 19.2068966,13.1003861 20.3448276,13.1003861 C21.4655172,13.1003861 22.3965517,12.1795367 22.3965517,11.0328185 C22.3793103,9.88610039 21.4655172,8.96525097 20.3448276,8.96525097 Z M20.3448276,12.0405405 C19.7931034,12.0405405 19.3275862,11.5888031 19.3275862,11.015444 C19.3275862,10.4594595 19.7758621,9.99034749 20.3448276,9.99034749 C20.8965517,9.99034749 21.362069,10.4420849 21.362069,11.015444 C21.3448276,11.5888031 20.8965517,12.0405405 20.3448276,12.0405405 Z M20.3448276,8.96525097 C19.2068966,8.96525097 18.2931034,9.88610039 18.2931034,11.0328185 C18.2931034,12.1795367 19.2068966,13.1003861 20.3448276,13.1003861 C21.4655172,13.1003861 22.3965517,12.1795367 22.3965517,11.0328185 C22.3793103,9.88610039 21.4655172,8.96525097 20.3448276,8.96525097 Z M20.3448276,12.0405405 C19.7931034,12.0405405 19.3275862,11.5888031 19.3275862,11.015444 C19.3275862,10.4594595 19.7758621,9.99034749 20.3448276,9.99034749 C20.8965517,9.99034749 21.362069,10.4420849 21.362069,11.015444 C21.3448276,11.5888031 20.8965517,12.0405405 20.3448276,12.0405405 Z M20.3448276,8.96525097 C19.2068966,8.96525097 18.2931034,9.88610039 18.2931034,11.0328185 C18.2931034,12.1795367 19.2068966,13.1003861 20.3448276,13.1003861 C21.4655172,13.1003861 22.3965517,12.1795367 22.3965517,11.0328185 C22.3793103,9.88610039 21.4655172,8.96525097 20.3448276,8.96525097 Z M20.3448276,12.0405405 C19.7931034,12.0405405 19.3275862,11.5888031 19.3275862,11.015444 C19.3275862,10.4594595 19.7758621,9.99034749 20.3448276,9.99034749 C20.8965517,9.99034749 21.362069,10.4420849 21.362069,11.015444 C21.3448276,11.5888031 20.8965517,12.0405405 20.3448276,12.0405405 Z M20.3448276,8.96525097 C19.2068966,8.96525097 18.2931034,9.88610039 18.2931034,11.0328185 C18.2931034,12.1795367 19.2068966,13.1003861 20.3448276,13.1003861 C21.4655172,13.1003861 22.3965517,12.1795367 22.3965517,11.0328185 C22.3793103,9.88610039 21.4655172,8.96525097 20.3448276,8.96525097 Z M20.3448276,12.0405405 C19.7931034,12.0405405 19.3275862,11.5888031 19.3275862,11.015444 C19.3275862,10.4594595 19.7758621,9.99034749 20.3448276,9.99034749 C20.8965517,9.99034749 21.362069,10.4420849 21.362069,11.015444 C21.3448276,11.5888031 20.8965517,12.0405405 20.3448276,12.0405405 Z M20.3448276,8.96525097 C19.2068966,8.96525097 18.2931034,9.88610039 18.2931034,11.0328185 C18.2931034,12.1795367 19.2068966,13.1003861 20.3448276,13.1003861 C21.4655172,13.1003861 22.3965517,12.1795367 22.3965517,11.0328185 C22.3793103,9.88610039 21.4655172,8.96525097 20.3448276,8.96525097 Z M20.3448276,12.0405405 C19.7931034,12.0405405 19.3275862,11.5888031 19.3275862,11.015444 C19.3275862,10.4594595 19.7758621,9.99034749 20.3448276,9.99034749 C20.8965517,9.99034749 21.362069,10.4420849 21.362069,11.015444 C21.3448276,11.5888031 20.8965517,12.0405405 20.3448276,12.0405405 Z M20.3448276,8.96525097 C19.2068966,8.96525097 18.2931034,9.88610039 18.2931034,11.0328185 C18.2931034,12.1795367 19.2068966,13.1003861 20.3448276,13.1003861 C21.4655172,13.1003861 22.3965517,12.1795367 22.3965517,11.0328185 C22.3793103,9.88610039 21.4655172,8.96525097 20.3448276,8.96525097 Z M20.3448276,12.0405405 C19.7931034,12.0405405 19.3275862,11.5888031 19.3275862,11.015444 C19.3275862,10.4594595 19.7758621,9.99034749 20.3448276,9.99034749 C20.8965517,9.99034749 21.362069,10.4420849 21.362069,11.015444 C21.3448276,11.5888031 20.8965517,12.0405405 20.3448276,12.0405405 Z M20.3448276,8.96525097 C19.2068966,8.96525097 18.2931034,9.88610039 18.2931034,11.0328185 C18.2931034,12.1795367 19.2068966,13.1003861 20.3448276,13.1003861 C21.4655172,13.1003861 22.3965517,12.1795367 22.3965517,11.0328185 C22.3793103,9.88610039 21.4655172,8.96525097 20.3448276,8.96525097 Z M20.3448276,12.0405405 C19.7931034,12.0405405 19.3275862,11.5888031 19.3275862,11.015444 C19.3275862,10.4594595 19.7758621,9.99034749 20.3448276,9.99034749 C20.8965517,9.99034749 21.362069,10.4420849 21.362069,11.015444 C21.3448276,11.5888031 20.8965517,12.0405405 20.3448276,12.0405405 Z M20.3448276,8.96525097 C19.2068966,8.96525097 18.2931034,9.88610039 18.2931034,11.0328185 C18.2931034,12.1795367 19.2068966,13.1003861 20.3448276,13.1003861 C21.4655172,13.1003861 22.3965517,12.1795367 22.3965517,11.0328185 C22.3793103,9.88610039 21.4655172,8.96525097 20.3448276,8.96525097 Z M20.3448276,12.0405405 C19.7931034,12.0405405 19.3275862,11.5888031 19.3275862,11.015444 C19.3275862,10.4594595 19.7758621,9.99034749 20.3448276,9.99034749 C20.8965517,9.99034749 21.362069,10.4420849 21.362069,11.015444 C21.3448276,11.5888031 20.8965517,12.0405405 20.3448276,12.0405405 Z M20.3448276,8.96525097 C19.2068966,8.96525097 18.2931034,9.88610039 18.2931034,11.0328185 C18.2931034,12.1795367 19.2068966,13.1003861 20.3448276,13.1003861 C21.4655172,13.1003861 22.3965517,12.1795367 22.3965517,11.0328185 C22.3793103,9.88610039 21.4655172,8.96525097 20.3448276,8.96525097 Z M20.3448276,12.0405405 C19.7931034,12.0405405 19.3275862,11.5888031 19.3275862,11.015444 C19.3275862,10.4594595 19.7758621,9.99034749 20.3448276,9.99034749 C20.8965517,9.99034749 21.362069,10.4420849 21.362069,11.015444 C21.3448276,11.5888031 20.8965517,12.0405405 20.3448276,12.0405405 Z M24.1896552,4.5 L5.77586207,4.5 L0.0172413793,0 L0.0172413793,2.15444015 C0.0172413793,6.01158301 0.396551724,11.2586873 1.17241379,16.2104247 L28.7931034,16.2104247 C29.5689655,11.2760618 29.9482759,6.01158301 29.9482759,2.15444015 L29.9482759,0 L24.1896552,4.5 Z M9.18965517,14.1776062 C7.46551724,14.1776062 6.05172414,12.7528958 6.05172414,11.015444 C6.05172414,9.27799228 7.46551724,7.85328185 9.18965517,7.85328185 C10.9137931,7.85328185 12.3275862,9.27799228 12.3275862,11.015444 C12.3448276,12.7702703 10.9310345,14.1776062 9.18965517,14.1776062 Z M20.3448276,14.1776062 C18.6206897,14.1776062 17.2068966,12.7528958 17.2068966,11.015444 C17.2068966,9.27799228 18.6206897,7.85328185 20.3448276,7.85328185 C22.0689655,7.85328185 23.4827586,9.27799228 23.4827586,11.015444 C23.4827586,12.7702703 22.0689655,14.1776062 20.3448276,14.1776062 Z M20.3448276,8.96525097 C19.2068966,8.96525097 18.2931034,9.88610039 18.2931034,11.0328185 C18.2931034,12.1795367 19.2068966,13.1003861 20.3448276,13.1003861 C21.4655172,13.1003861 22.3965517,12.1795367 22.3965517,11.0328185 C22.3793103,9.88610039 21.4655172,8.96525097 20.3448276,8.96525097 Z M20.3448276,12.0405405 C19.7931034,12.0405405 19.3275862,11.5888031 19.3275862,11.015444 C19.3275862,10.4594595 19.7758621,9.99034749 20.3448276,9.99034749 C20.8965517,9.99034749 21.362069,10.4420849 21.362069,11.015444 C21.3448276,11.5888031 20.8965517,12.0405405 20.3448276,12.0405405 Z M9.18965517,8.96525097 C8.06896552,8.96525097 7.13793103,9.88610039 7.13793103,11.0328185 C7.13793103,12.1795367 8.05172414,13.1003861 9.18965517,13.1003861 C10.3275862,13.1003861 11.2413793,12.1795367 11.2413793,11.0328185 C11.2413793,9.88610039 10.3275862,8.96525097 9.18965517,8.96525097 Z M9.18965517,12.0405405 C8.63793103,12.0405405 8.17241379,11.5888031 8.17241379,11.015444 C8.17241379,10.4594595 8.62068966,9.99034749 9.18965517,9.99034749 C9.74137931,9.99034749 10.2068966,10.4420849 10.2068966,11.015444 C10.2068966,11.5888031 9.75862069,12.0405405 9.18965517,12.0405405 Z M20.3448276,8.96525097 C19.2068966,8.96525097 18.2931034,9.88610039 18.2931034,11.0328185 C18.2931034,12.1795367 19.2068966,13.1003861 20.3448276,13.1003861 C21.4655172,13.1003861 22.3965517,12.1795367 22.3965517,11.0328185 C22.3793103,9.88610039 21.4655172,8.96525097 20.3448276,8.96525097 Z M20.3448276,12.0405405 C19.7931034,12.0405405 19.3275862,11.5888031 19.3275862,11.015444 C19.3275862,10.4594595 19.7758621,9.99034749 20.3448276,9.99034749 C20.8965517,9.99034749 21.362069,10.4420849 21.362069,11.015444 C21.3448276,11.5888031 20.8965517,12.0405405 20.3448276,12.0405405 Z M20.3448276,8.96525097 C19.2068966,8.96525097 18.2931034,9.88610039 18.2931034,11.0328185 C18.2931034,12.1795367 19.2068966,13.1003861 20.3448276,13.1003861 C21.4655172,13.1003861 22.3965517,12.1795367 22.3965517,11.0328185 C22.3793103,9.88610039 21.4655172,8.96525097 20.3448276,8.96525097 Z M20.3448276,12.0405405 C19.7931034,12.0405405 19.3275862,11.5888031 19.3275862,11.015444 C19.3275862,10.4594595 19.7758621,9.99034749 20.3448276,9.99034749 C20.8965517,9.99034749 21.362069,10.4420849 21.362069,11.015444 C21.3448276,11.5888031 20.8965517,12.0405405 20.3448276,12.0405405 Z M20.3448276,8.96525097 C19.2068966,8.96525097 18.2931034,9.88610039 18.2931034,11.0328185 C18.2931034,12.1795367 19.2068966,13.1003861 20.3448276,13.1003861 C21.4655172,13.1003861 22.3965517,12.1795367 22.3965517,11.0328185 C22.3793103,9.88610039 21.4655172,8.96525097 20.3448276,8.96525097 Z M20.3448276,12.0405405 C19.7931034,12.0405405 19.3275862,11.5888031 19.3275862,11.015444 C19.3275862,10.4594595 19.7758621,9.99034749 20.3448276,9.99034749 C20.8965517,9.99034749 21.362069,10.4420849 21.362069,11.015444 C21.3448276,11.5888031 20.8965517,12.0405405 20.3448276,12.0405405 Z M20.3448276,8.96525097 C19.2068966,8.96525097 18.2931034,9.88610039 18.2931034,11.0328185 C18.2931034,12.1795367 19.2068966,13.1003861 20.3448276,13.1003861 C21.4655172,13.1003861 22.3965517,12.1795367 22.3965517,11.0328185 C22.3793103,9.88610039 21.4655172,8.96525097 20.3448276,8.96525097 Z M20.3448276,12.0405405 C19.7931034,12.0405405 19.3275862,11.5888031 19.3275862,11.015444 C19.3275862,10.4594595 19.7758621,9.99034749 20.3448276,9.99034749 C20.8965517,9.99034749 21.362069,10.4420849 21.362069,11.015444 C21.3448276,11.5888031 20.8965517,12.0405405 20.3448276,12.0405405 Z M20.3448276,8.96525097 C19.2068966,8.96525097 18.2931034,9.88610039 18.2931034,11.0328185 C18.2931034,12.1795367 19.2068966,13.1003861 20.3448276,13.1003861 C21.4655172,13.1003861 22.3965517,12.1795367 22.3965517,11.0328185 C22.3793103,9.88610039 21.4655172,8.96525097 20.3448276,8.96525097 Z M20.3448276,12.0405405 C19.7931034,12.0405405 19.3275862,11.5888031 19.3275862,11.015444 C19.3275862,10.4594595 19.7758621,9.99034749 20.3448276,9.99034749 C20.8965517,9.99034749 21.362069,10.4420849 21.362069,11.015444 C21.3448276,11.5888031 20.8965517,12.0405405 20.3448276,12.0405405 Z M20.3448276,8.96525097 C19.2068966,8.96525097 18.2931034,9.88610039 18.2931034,11.0328185 C18.2931034,12.1795367 19.2068966,13.1003861 20.3448276,13.1003861 C21.4655172,13.1003861 22.3965517,12.1795367 22.3965517,11.0328185 C22.3793103,9.88610039 21.4655172,8.96525097 20.3448276,8.96525097 Z M20.3448276,12.0405405 C19.7931034,12.0405405 19.3275862,11.5888031 19.3275862,11.015444 C19.3275862,10.4594595 19.7758621,9.99034749 20.3448276,9.99034749 C20.8965517,9.99034749 21.362069,10.4420849 21.362069,11.015444 C21.3448276,11.5888031 20.8965517,12.0405405 20.3448276,12.0405405 Z M20.3448276,8.96525097 C19.2068966,8.96525097 18.2931034,9.88610039 18.2931034,11.0328185 C18.2931034,12.1795367 19.2068966,13.1003861 20.3448276,13.1003861 C21.4655172,13.1003861 22.3965517,12.1795367 22.3965517,11.0328185 C22.3793103,9.88610039 21.4655172,8.96525097 20.3448276,8.96525097 Z M20.3448276,12.0405405 C19.7931034,12.0405405 19.3275862,11.5888031 19.3275862,11.015444 C19.3275862,10.4594595 19.7758621,9.99034749 20.3448276,9.99034749 C20.8965517,9.99034749 21.362069,10.4420849 21.362069,11.015444 C21.3448276,11.5888031 20.8965517,12.0405405 20.3448276,12.0405405 Z M20.3448276,8.96525097 C19.2068966,8.96525097 18.2931034,9.88610039 18.2931034,11.0328185 C18.2931034,12.1795367 19.2068966,13.1003861 20.3448276,13.1003861 C21.4655172,13.1003861 22.3965517,12.1795367 22.3965517,11.0328185 C22.3793103,9.88610039 21.4655172,8.96525097 20.3448276,8.96525097 Z M20.3448276,12.0405405 C19.7931034,12.0405405 19.3275862,11.5888031 19.3275862,11.015444 C19.3275862,10.4594595 19.7758621,9.99034749 20.3448276,9.99034749 C20.8965517,9.99034749 21.362069,10.4420849 21.362069,11.015444 C21.3448276,11.5888031 20.8965517,12.0405405 20.3448276,12.0405405 Z M20.3448276,8.96525097 C19.2068966,8.96525097 18.2931034,9.88610039 18.2931034,11.0328185 C18.2931034,12.1795367 19.2068966,13.1003861 20.3448276,13.1003861 C21.4655172,13.1003861 22.3965517,12.1795367 22.3965517,11.0328185 C22.3793103,9.88610039 21.4655172,8.96525097 20.3448276,8.96525097 Z M20.3448276,12.0405405 C19.7931034,12.0405405 19.3275862,11.5888031 19.3275862,11.015444 C19.3275862,10.4594595 19.7758621,9.99034749 20.3448276,9.99034749 C20.8965517,9.99034749 21.362069,10.4420849 21.362069,11.015444 C21.3448276,11.5888031 20.8965517,12.0405405 20.3448276,12.0405405 Z M20.3448276,8.96525097 C19.2068966,8.96525097 18.2931034,9.88610039 18.2931034,11.0328185 C18.2931034,12.1795367 19.2068966,13.1003861 20.3448276,13.1003861 C21.4655172,13.1003861 22.3965517,12.1795367 22.3965517,11.0328185 C22.3793103,9.88610039 21.4655172,8.96525097 20.3448276,8.96525097 Z M20.3448276,12.0405405 C19.7931034,12.0405405 19.3275862,11.5888031 19.3275862,11.015444 C19.3275862,10.4594595 19.7758621,9.99034749 20.3448276,9.99034749 C20.8965517,9.99034749 21.362069,10.4420849 21.362069,11.015444 C21.3448276,11.5888031 20.8965517,12.0405405 20.3448276,12.0405405 Z" id="Shape"></path>
            <rect id="Rectangle-path" transform="translate(11.184074, 38.845654) rotate(10.661541) translate(-11.184074, -38.845654) " x="10.4254822" y="33.4250098" width="1.51718394" height="10.8412884"></rect>
            <rect id="Rectangle-path" transform="translate(18.795600, 38.846113) rotate(79.332829) translate(-18.795600, -38.846113) " x="13.4163937" y="38.0816488" width="10.7584125" height="1.52892794"></rect>
            <rect id="Rectangle-path" x="2.67241379" y="43.4189189" width="24.637931" height="1.52895753"></rect>
        </g>
    </g>
</svg>